HIERARCHY
ROOT SpineBase
{
  OFFSET 0.000000 0.000000 0.000000
  CHANNELS 6 Xposition Yposition Zposition Zrotation Xrotation Yrotation
  JOINT SpineMid
  {
    OFFSET 0.000000 26.323132 0.000000
    CHANNELS 3 Zrotation Xrotation Yrotation
    JOINT SpineShoulder
    {
      OFFSET 0.239132 19.684907 -0.536244
      CHANNELS 3 Zrotation Xrotation Yrotation
      JOINT Neck
      {
        OFFSET 0.105869 6.516017 -0.540280
        CHANNELS 3 Zrotation Xrotation Yrotation
        JOINT Head
        {
          OFFSET 4.869388 12.793330 4.532455
          CHANNELS 3 Zrotation Xrotation Yrotation
          End Site
          {
            OFFSET 0 0 0
          }
        }
      }
      JOINT ShoulderLeft
      {
        OFFSET -12.592601 1.720121 0.435882
        CHANNELS 3 Zrotation Xrotation Yrotation
        JOINT ElbowLeft
        {
          OFFSET -10.551245 -19.336748 -5.223569
          CHANNELS 3 Zrotation Xrotation Yrotation
          JOINT WristLeft
          {
            OFFSET -0.018490 -16.744565 -8.350608
            CHANNELS 3 Zrotation Xrotation Yrotation
            JOINT HandLeft
            {
              OFFSET 2.459214 -6.107116 -1.309288
              CHANNELS 3 Zrotation Xrotation Yrotation
              JOINT HandTipLeft
              {
                OFFSET 1.511206 -4.622995 -3.654074
                CHANNELS 3 Zrotation Xrotation Yrotation
                End Site
                {
                  OFFSET 0 0 0
                }
              }
              JOINT ThumbLeft
              {
                OFFSET 3.683345 -1.132382 3.392016
                CHANNELS 3 Zrotation Xrotation Yrotation
                End Site
                {
                  OFFSET 0 0 0
                }
              }
            }
          }
        }
      }
      JOINT ShoulderRight
      {
        OFFSET 12.105884 5.991511 8.110611
        CHANNELS 3 Zrotation Xrotation Yrotation
        JOINT ElbowRight
        {
          OFFSET -4.576486 -21.054688 4.604475
          CHANNELS 3 Zrotation Xrotation Yrotation
          JOINT WristRight
          {
            OFFSET -4.153178 -14.360533 -17.899867
            CHANNELS 3 Zrotation Xrotation Yrotation
            JOINT HandRight
            {
              OFFSET -0.263706 -6.485432 2.296997
              CHANNELS 3 Zrotation Xrotation Yrotation
              JOINT HandTipRight
              {
                OFFSET 1.495134 -3.757218 -6.163892
                CHANNELS 3 Zrotation Xrotation Yrotation
                End Site
                {
                  OFFSET 0 0 0
                }
              }
              JOINT ThumbRight
              {
                OFFSET 4.825004 2.398802 3.917152
                CHANNELS 3 Zrotation Xrotation Yrotation
                End Site
                {
                  OFFSET 0 0 0
                }
              }
            }
          }
        }
      }
    }
  }
  JOINT HipLeft
  {
    OFFSET -6.210384 1.721268 -4.362195
    CHANNELS 3 Zrotation Xrotation Yrotation
    JOINT KneeLeft
    {
      OFFSET -0.130688 -24.028731 -8.274878
      CHANNELS 3 Zrotation Xrotation Yrotation
      JOINT AnkleLeft
      {
        OFFSET 0.641491 -29.499226 1.005274
        CHANNELS 3 Zrotation Xrotation Yrotation
        JOINT FootLeft
        {
          OFFSET 3.278163 -0.035797 -12.817155
          CHANNELS 3 Zrotation Xrotation Yrotation
          End Site
          {
            OFFSET 0 0 0
          }
        }
      }
    }
  }
  JOINT HipRight
  {
    OFFSET 6.083413 1.977339 -2.083827
    CHANNELS 3 Zrotation Xrotation Yrotation
    JOINT KneeRight
    {
      OFFSET 11.462378 -21.570713 -10.906761
      CHANNELS 3 Zrotation Xrotation Yrotation
      JOINT AnkleRight
      {
        OFFSET 10.037159 -30.861567 -7.420755
        CHANNELS 3 Zrotation Xrotation Yrotation
        JOINT FootRight
        {
          OFFSET 2.401076 1.368685 -10.583691
          CHANNELS 3 Zrotation Xrotation Yrotation
          End Site
          {
            OFFSET 0 0 0
          }
        }
      }
    }
  }
}
MOTION
Frames: 11
Frame Time: 0.033333
21.638465 100.214288 311.083217 -0.000000 0.000000 -10.499313 -0.000000 0.000000 10.499313 -0.000000 0.000000 0.000000 -0.000000 0.000000 0.000000 0.000000 0.000000 0.000000 -0.000000 0.000000 0.000000 -0.000000 0.000000 0.000000 -0.000000 0.000000 0.000000 -0.000000 0.000000 0.000000 0.000000 0.000000 0.000000 0.000000 0.000000 0.000000 -0.000000 0.000000 0.000000 -0.000000 0.000000 0.000000 -0.000000 0.000000 0.000000 -0.000000 0.000000 0.000000 0.000000 0.000000 0.000000 0.000000 0.000000 0.000000 -0.000000 0.000000 10.499313 -0.000000 0.000000 0.000000 -0.000000 0.000000 0.000000 0.000000 0.000000 0.000000 -0.000000 0.000000 10.499313 -0.000000 0.000000 0.000000 -0.000000 0.000000 0.000000 0.000000 0.000000 0.000000
21.581229 99.522540 314.265641 0.063249 -3.346896 -13.032316 0.388668 -0.359272 13.082709 0.446133 1.551152 0.021545 -12.190428 -0.185197 4.935618 0.000000 0.000000 0.000000 -2.478385 0.176934 1.518950 3.531540 2.073876 -2.561886 -3.818687 2.350847 2.377939 1.806951 -6.199733 -2.608563 0.000000 0.000000 0.000000 0.000000 0.000000 0.000000 5.686730 0.885547 1.462480 -3.395439 -5.727792 -3.703489 -0.963212 8.278310 2.927274 -1.566660 -7.870938 -5.860424 0.000000 0.000000 0.000000 0.000000 0.000000 0.000000 -0.955936 13.334531 12.305202 -2.034232 -9.884030 0.596279 -0.946549 -3.505400 -1.659507 0.000000 0.000000 0.000000 -0.935442 10.821272 16.081990 -1.995487 -7.309820 -3.137641 -2.998488 -10.897383 -2.412227 0.000000 0.000000 0.000000
21.571994 98.669853 316.612217 -0.400126 -5.736907 -15.371548 0.711272 -0.556066 15.407726 0.765834 2.623048 -0.009104 -22.391965 -2.754967 9.802403 0.000000 0.000000 0.000000 -3.794561 0.298299 2.698965 6.521792 3.335752 -4.717016 -6.635226 4.687605 4.507057 2.936459 -11.541549 -5.052725 0.000000 0.000000 0.000000 0.000000 0.000000 0.000000 10.217546 1.773399 2.268517 -5.678239 -10.804206 -6.546580 -1.553247 16.060210 5.528510 -4.565433 -15.726857 -10.921810 0.000000 0.000000 0.000000 0.000000 0.000000 0.000000 -1.543901 23.570676 13.969096 -5.788461 -18.145277 0.317729 -0.363550 -6.468626 -3.181050 0.000000 0.000000 0.000000 -1.822192 19.017730 20.677103 -3.252742 -12.968307 -5.644246 -6.090459 -17.829377 -4.064386 0.000000 0.000000 0.000000
21.610758 97.656227 318.122945 -1.361391 -7.399945 -17.429949 0.976185 -0.634288 17.372851 0.986408 3.329603 -0.054911 -29.142575 -6.911349 13.521513 0.000000 0.000000 0.000000 -4.041276 0.582549 3.444016 8.960444 3.836865 -6.363410 -8.439160 7.016752 6.329909 3.491896 -15.967014 -7.286355 0.000000 0.000000 0.000000 0.000000 0.000000 0.000000 13.626258 2.699351 2.580918 -6.840521 -14.678279 -8.673240 -1.372338 23.180177 7.589759 -9.029258 -22.837588 -14.803234 0.000000 0.000000 0.000000 0.000000 0.000000 0.000000 -1.384648 31.263126 15.244446 -9.267475 -24.344464 -0.321938 -0.246152 -9.266245 -4.479679 0.000000 0.000000 0.000000 -2.147834 25.119392 24.188589 -5.465530 -17.378205 -7.553097 -7.380831 -21.204558 -5.008746 0.000000 0.000000 0.000000
21.697522 96.481661 318.797826 -2.847444 -8.465515 -19.142767 1.191098 -0.621142 18.908878 1.125269 3.737381 -0.101938 -31.810482 -11.806695 15.820338 0.000000 0.000000 0.000000 -3.224833 1.181572 3.692612 10.842541 3.608623 -7.412940 -9.261502 9.338913 7.793056 3.627968 -19.428669 -9.272368 0.000000 0.000000 0.000000 0.000000 0.000000 0.000000 15.996344 3.711314 2.506977 -6.845858 -16.991477 -10.184498 -0.023818 29.777856 8.913670 -14.985459 -28.811367 -17.300508 0.000000 0.000000 0.000000 0.000000 0.000000 0.000000 -0.015359 36.973752 15.804167 -13.275405 -29.020928 -1.402297 0.264453 -11.368964 -5.306314 0.000000 0.000000 0.000000 -1.438828 29.613559 26.451783 -8.005795 -20.744520 -9.006008 -7.363940 -21.620656 -5.028905 0.000000 0.000000 0.000000
21.832286 95.146157 318.636858 -4.938432 -8.988962 -20.467030 1.363139 -0.529283 19.974801 1.195080 3.875168 -0.149836 -30.172472 -16.981058 16.919686 0.000000 0.000000 0.000000 -1.261904 2.204572 3.389434 12.174062 2.654027 -7.782202 -9.177894 11.639981 8.854962 3.542842 -21.875097 -10.986656 0.000000 0.000000 0.000000 0.000000 0.000000 0.000000 17.364375 4.883147 2.106926 -5.590003 -17.481647 -11.098747 2.886776 36.199485 9.328605 -22.696071 -33.542162 -18.543046 0.000000 0.000000 0.000000 0.000000 0.000000 0.000000 3.079715 41.108169 15.296335 -17.881194 -32.439330 -2.830479 1.352793 -12.458447 -5.452084 0.000000 0.000000 0.000000 0.743640 32.849162 27.287266 -10.875784 -23.287812 -10.057951 -6.023024 -19.113928 -4.114158 0.000000 0.000000 0.000000
21.552119 93.765924 318.257780 -9.850667 -9.176188 -19.167872 1.556145 -0.360887 18.092402 1.248066 3.712375 -0.259493 -16.926704 -25.826212 17.466635 0.000000 0.000000 0.000000 3.336464 4.564799 2.428744 12.930496 0.252531 -6.775535 -6.618761 16.203623 9.522276 3.752891 -22.136883 -12.502463 0.000000 0.000000 0.000000 0.000000 0.000000 0.000000 15.958876 7.390339 0.748528 3.041652 -18.285844 -12.600662 15.449123 58.086607 5.446599 -51.783284 -43.812416 -31.977293 0.000000 0.000000 0.000000 0.000000 0.000000 0.000000 13.089739 46.378461 9.246280 -22.966934 -36.055300 -4.451587 3.151976 -11.275209 -3.077929 0.000000 0.000000 0.000000 9.169983 35.974083 22.842299 -14.872249 -25.677460 -10.815843 -3.486597 -13.829256 -2.248162 0.000000 0.000000 0.000000
21.450849 91.972588 316.651058 -14.597194 -8.675613 -18.578032 1.704118 -0.134406 17.026100 1.225287 3.065197 -0.413940 -0.387858 -30.651412 17.854438 0.000000 0.000000 0.000000 7.006562 4.864408 2.722489 16.472779 -0.795223 -8.182229 -5.931953 19.941651 10.527385 5.594694 -21.748719 -14.246316 0.000000 0.000000 0.000000 0.000000 0.000000 0.000000 13.701563 8.522410 -0.060094 10.763191 -12.764282 -13.209254 21.512192 63.110792 5.145573 -66.871419 -45.828225 -43.181877 0.000000 0.000000 0.000000 0.000000 0.000000 0.000000 24.543750 47.324417 2.980546 -30.375511 -37.754535 -6.819742 4.118467 -15.635307 -4.361483 0.000000 0.000000 0.000000 17.942910 37.143295 18.350127 -19.557005 -27.745443 -11.396349 2.161898 2.653386 1.165773 0.000000 0.000000 0.000000
22.145427 89.949707 312.458871 -17.411468 -5.400124 -24.788400 1.724243 0.390046 23.463101 0.921429 1.909642 -0.601658 7.649147 -36.166380 19.035835 0.000000 0.000000 0.000000 12.326897 6.240911 0.304108 16.755079 -4.968404 -5.840015 -5.528198 22.393506 10.812361 5.326146 -26.689363 -16.514801 0.000000 0.000000 0.000000 0.000000 0.000000 0.000000 12.521000 8.930000 -0.634119 13.045367 -2.505803 -11.957638 26.272005 65.917177 6.150777 -80.430445 -40.529937 -41.694236 0.000000 0.000000 0.000000 0.000000 0.000000 0.000000 25.795759 43.265592 9.853852 -35.435494 -35.083522 -7.128152 6.930862 -15.139192 -4.640582 0.000000 0.000000 0.000000 20.493809 36.421142 22.874667 -23.151466 -28.249149 -10.689630 7.174804 20.157183 3.501138 0.000000 0.000000 0.000000
23.907968 87.089622 308.185858 -18.078113 -3.580548 -25.181682 1.251843 0.980157 24.198493 0.756663 0.076889 -0.856475 10.281886 -33.943477 17.745234 0.000000 0.000000 0.000000 16.987830 9.586794 -3.026311 16.454266 -9.845961 -2.619225 -5.481389 23.608184 10.638662 5.514815 -25.523307 -17.045881 0.000000 0.000000 0.000000 0.000000 0.000000 0.000000 15.734212 8.601162 -0.327039 4.580600 5.588428 -7.133122 28.942877 61.609933 3.083170 -75.058310 -41.947891 -35.389055 0.000000 0.000000 0.000000 0.000000 0.000000 0.000000 31.034286 39.127344 8.397878 -41.276528 -34.062002 -7.372119 10.575464 -9.810701 -6.572936 0.000000 0.000000 0.000000 23.699263 34.441482 21.542108 -26.035005 -28.623051 -10.107206 10.982789 32.540687 6.186582 0.000000 0.000000 0.000000
25.622375 84.171349 304.625794 -17.603636 -3.240618 -23.642780 1.295964 0.617039 22.699012 0.633945 0.486502 -0.794244 6.622230 -27.387182 14.891128 0.000000 0.000000 0.000000 22.661492 11.546258 -6.747018 14.910835 -12.853561 -0.115223 -7.037329 21.481656 10.681901 4.857650 -17.968811 -15.705238 0.000000 0.000000 0.000000 0.000000 0.000000 0.000000 19.994760 8.706143 0.140788 -8.259131 12.668425 -0.363254 16.020656 33.515139 2.572029 -34.228596 -36.662161 0.877444 0.000000 0.000000 0.000000 0.000000 0.000000 0.000000 36.803019 35.392221 4.062645 -47.943251 -34.316658 -7.583794 15.202037 -4.296253 -2.162721 0.000000 0.000000 0.000000 26.865830 32.078869 17.540127 -28.758773 -28.249121 -8.759799 13.409527 38.065402 9.111724 0.000000 0.000000 0.000000
